#!OML:ASF E:\Style4\Style4.ASF
:FULLY-SPECIFIED
:DEGREES
2219
root 0.156556 17.834 -1.43051 2.72408 -3.9866 2.57566
lowerback 8.97234 1.39736 -1.44391
upperback 4.14687 1.71843 -0.817351
thorax -0.750396 0.8457 -0.193819
lowerneck 1.40376 -3.0838 -6.0213
upperneck -1.14808 -4.16108 5.74359
head -0.341904 -2.09784 2.89938
rclavicle -1.54804e-014 9.74045e-015
rhumerus -36.9637 27.5269 -90.1357
rradius 64.3019
rwrist -40.5896
rhand -24.24 24.7589
rfingers 7.12502
rthumb 2.24559 -5.20903
lclavicle -1.54804e-014 9.74045e-015
lhumerus 22.7501 -15.9461 58.0027
lradius 98.3656
lwrist 45.6548
lhand -16.6587 23.2662
lfingers 7.12502
lthumb 9.56466 53.0291
rfemur -17.1298 3.60081 15.0665
rtibia 32.2408
rfoot -17.1162 -11.6462
rtoes -12.8594
lfemur -15.689 1.00422 -21.8659
ltibia 32.0594
lfoot -17.7238 8.20311
ltoes -13.8693
2220
root 0.156624 17.8266 -1.42724 2.68594 -3.78407 2.46425
lowerback 9.10216 1.34378 -1.41755
upperback 4.16769 1.64665 -0.844943
thorax -0.798026 0.810589 -0.233108
lowerneck 1.29265 -3.09319 -6.00181
upperneck -1.08326 -4.16809 5.90539
head -0.298423 -2.10122 2.94708
rclavicle -3.10601e-015 8.94531e-016
rhumerus -37.9389 27.7026 -90.5562
rradius 64.6694
rwrist -40.9382
rhand -24.3917 24.7701
rfingers 7.12502
rthumb 2.09902 -5.19933
lclavicle -3.10601e-015 8.94531e-016
lhumerus 22.3698 -16.2316 58.8171
lradius 97.7801
lwrist 45.778
lhand -17.1887 23.6235
lfingers 7.12502
lthumb 9.05325 53.4092
rfemur -17.123 3.51299 15.1961
rtibia 32.4272
rfoot -17.2822 -11.6904
rtoes -12.4372
lfemur -15.7268 0.924632 -21.7549
ltibia 32.1874
lfoot -17.7583 8.17108
ltoes -13.8322
2221
root 0.156814 17.8184 -1.42572 2.67884 -3.64049 2.46577
lowerback 9.21385 1.31792 -1.53341
upperback 4.16712 1.59993 -0.869587
thorax -0.861827 0.786434 -0.191762
lowerneck 1.19518 -3.09681 -6.06651
upperneck -0.984251 -4.17092 6.06647
head -0.244929 -2.10221 3.01034
rclavicle 9.56651e-015 -4.77083e-015
rhumerus -38.9474 27.8586 -90.9317
rradius 65.0521
rwrist -41.0679
rhand -24.328 24.6227
rfingers 7.12502
rthumb 2.16054 -5.34613
lclavicle 9.56651e-015 -4.77083e-015
lhumerus 21.7762 -16.4168 59.8375
lradius 97.0932
lwrist 45.8552
lhand -17.5159 23.7674
lfingers 7.12502
lthumb 8.7375 53.5666
rfemur -17.2265 3.43512 15.198
rtibia 32.6626
rfoot -17.3801 -11.7542
rtoes -12.466
lfemur -15.8246 0.845491 -21.7711
ltibia 32.3272
lfoot -17.8689 8.14348
ltoes -13.5015
2222
root 0.156269 17.8079 -1.42308 2.69816 -3.53255 2.51631
lowerback 9.22818 1.32268 -1.70373
upperback 4.18942 1.59166 -0.9012
thorax -0.849952 0.78052 -0.128094
lowerneck 1.22773 -3.12103 -6.1396
upperneck -1.05202 -4.20285 6.22237
head -0.264985 -2.11935 3.07865
rclavicle -2.06488e-014 -2.93207e-015
rhumerus -39.8525 27.9791 -91.267
rradius 65.3394
rwrist -41.1114
rhand -24.3245 24.491
rfingers 7.12502
rthumb 2.16393 -5.47778
lclavicle -2.06488e-014 -2.93207e-015
lhumerus 21.1838 -16.5629 60.8548
lradius 96.433
lwrist 45.6306
lhand -17.189 24.0394
lfingers 7.12502
lthumb 9.05297 53.8251
rfemur -17.3647 3.37391 15.1414
rtibia 32.9207
rfoot -17.4999 -11.8031
rtoes -12.0837
lfemur -15.9543 0.812452 -21.8393
ltibia 32.4891
lfoot -18.108 8.01426
ltoes -12.4973
2223
root 0.153229 17.797 -1.42054 2.6894 -3.35908 2.57511
lowerback 9.32179 1.31879 -1.81816
upperback 4.19312 1.57289 -1.00633
thorax -0.897093 0.771034 -0.172679
lowerneck 1.24922 -3.15812 -6.10164
upperneck -1.09638 -4.25004 6.39764
head -0.276515 -2.14461 3.13216
rclavicle 2.23633e-014 2.80783e-015
rhumerus -40.7658 28.1074 -91.7616
rradius 65.6263
rwrist -41.2295
rhand -24.5242 24.4333
rfingers 7.12502
rthumb 1.97107 -5.53734
lclavicle 2.23633e-014 2.80783e-015
lhumerus 20.5805 -16.8325 61.6936
lradius 95.8627
lwrist 45.1505
lhand -16.7162 24.4674
lfingers 7.12502
lthumb 9.50921 54.2329
rfemur -17.4595 3.29835 15.0905
rtibia 33.2122
rfoot -17.6916 -11.8672
rtoes -11.5297
lfemur -16.0412 0.784735 -21.9033
ltibia 32.6521
lfoot -18.2631 7.88413
ltoes -12.0795
2224
root 0.149485 17.7899 -1.41791 2.718 -3.15077 2.57831
lowerback 9.42687 1.28279 -1.87828
upperback 4.15635 1.51499 -1.10208
thorax -0.990956 0.743024 -0.234897
lowerneck 1.22872 -3.16548 -6.06
upperneck -1.07994 -4.2573 6.58222
head -0.263922 -2.14936 3.18661
rclavicle 2.39668e-015 7.37677e-016
rhumerus -41.7091 28.3645 -92.3389
rradius 65.9103
rwrist -41.439
rhand -24.7503 24.5183
rfingers 7.12502
rthumb 1.75272 -5.45424
lclavicle 2.39668e-015 7.37677e-016
lhumerus 19.8258 -17.172 62.4763
lradius 95.3426
lwrist 44.7806
lhand -16.6866 24.6141
lfingers 7.12502
lthumb 9.53777 54.3782
rfemur -17.5959 3.18143 15.1052
rtibia 33.5101
rfoot -17.8931 -11.9248
rtoes -11.3119
lfemur -16.1915 0.750403 -21.9041
ltibia 32.8317
lfoot -18.2351 7.93214
ltoes -13.1112
2225
root 0.148466 17.7804 -1.41588 2.75754 -2.94475 2.6101
lowerback 9.40396 1.23076 -2.00044
upperback 4.1995 1.43681 -1.13944
thorax -0.934702 0.702602 -0.195922
lowerneck 1.12777 -3.14515 -6.1625
upperneck -1.09967 -4.22468 6.77291
head -0.248226 -2.13236 3.26958
rclavicle 4.72114e-016 5.93869e-015
rhumerus -42.5241 28.758 -92.7545
rradius 66.2698
rwrist -41.6539
rhand -24.9342 24.6346
rfingers 7.12502
rthumb 1.57508 -5.3393
lclavicle 4.72114e-016 5.93869e-015
lhumerus 19.1038 -17.3978 63.2986
lradius 94.8181
lwrist 44.427
lhand -16.6746 24.6003
lfingers 7.12502
lthumb 9.54933 54.3639
rfemur -17.7608 3.02751 15.074
rtibia 33.8234
rfoot -18.1131 -11.8943
rtoes -11.1061
lfemur -16.3645 0.630776 -21.9433
ltibia 33.0191
lfoot -18.2557 8.02679
ltoes -14.1045
